<svg xmlns="http://www.w3.org/2000/svg" width="154.388" height="114.102" viewBox="0 0 154.388 114.102">
  <path id="Squirrel" d="M186.793,106.1c-4.786-15.584-15.728-21.18-23.283-23.3a.032.032,0,0,1-.021-.021c-2.652-8.427-8.522-10.922-11.012-11.434a.032.032,0,0,0-.037.021c-3.162,8.074-1.76,13.437,1.459,17.874a.033.033,0,0,1,0,.041c-.882.948-1.764,1.9-2.7,2.791a24.136,24.136,0,0,1-4.959,4.016c-4.687,2.519-10.073,1.782-15.133,1.269-1.745-.177-3.5-.3-5.256-.339a42.3,42.3,0,0,0-15.876,2.763,50.662,50.662,0,0,0-9.512,4.851l-.327.214c-8.033,5.3-13.589,12.8-15.642,21.134-1.749,7.1-.244,14.662,4.475,22.478a1.537,1.537,0,0,1-.355,2.048,1.466,1.466,0,0,1-2.1-.437c-5.181-8.539-6.819-16.88-4.868-24.792a36.178,36.178,0,0,1,7.076-14.048,56.461,56.461,0,0,0,8.021-12.989c5.586-12.928,8.309-26.92-3.539-38.768A27.993,27.993,0,0,0,71.423,50.98c-14.674.637-30.078,11.309-38.181,20.955a2.732,2.732,0,0,0,1.9,4.482c.128.009,12.787,1.033,17.691,11.732,2.947,6.43.643,14.795-1.585,22.885-1.65,5.993-3.209,11.654-2.751,16.7,1.292,14.2,8.383,25.056,20.507,31.389,10.757,5.619,18.712,5.929,20.921,5.932h60.971a.874.874,0,0,0,.873-.872c0-4.305-1.681-7.433-8.288-7.433H140.64a.869.869,0,0,1-.6-1.5,32.946,32.946,0,0,0,6.788-9.324,19.671,19.671,0,0,0,2.084-11.11,17.31,17.31,0,0,0-1.626-5.719c-2.728-5.629-8.637-9.56-14.372-9.56a1.468,1.468,0,1,1,0-2.936c6.926,0,13.763,4.507,17.014,11.215a18.938,18.938,0,0,1,1.737,6.132,12.305,12.305,0,0,0,3.413.814c4.428.411,8.425-.4,11.788-3.626,2.586-2.482,5.186-5.349,9.332-2.566,2.462,1.653,4.887-.111,6.4-1.828,1.44-1.633,1.148-4.171-.516-6.142-1.938-2.295-4.592-2.847-7.372-2.691-2.145.122-4.263.686-6.406.942-1.863.224-2.9-.659-2.992-2.342a7.979,7.979,0,0,1,1.343-4.19.032.032,0,0,1,.032-.014c10.092,1.512,15,.461,17.86-.938A4.415,4.415,0,0,0,186.793,106.1Zm-12.7-4.108a2.5,2.5,0,1,1,2.5-2.5A2.5,2.5,0,0,1,174.094,101.988Z" transform="translate(-32.602 -50.949)" fill="#2266a6"/>
</svg>
