<svg xmlns="http://www.w3.org/2000/svg" xmlns:xlink="http://www.w3.org/1999/xlink" width="717.87" height="300.938" viewBox="0 0 717.87 300.938">
  <defs>
    <linearGradient id="linear-gradient" x1="-0.052" y1="0.466" x2="1" y2="0.46" gradientUnits="objectBoundingBox">
      <stop offset="0" stop-color="#2cbfcd"/>
      <stop offset="1" stop-color="#07e4a7"/>
    </linearGradient>
  </defs>
  <g id="Group_1436" data-name="Group 1436" transform="translate(-89.384 -1249.934)">
    <g id="Group_1018" data-name="Group 1018" transform="translate(316.998 1249.934)">
      <path id="Path_202" data-name="Path 202" d="M214.062,1338.3l-15.179,61.347c-1.3,5.167-2.266,10.335-2.266,12.92,0,9.685,4.848,12.913,10.335,12.913,7.433,0,12.924-1.939,27.13-11.3l11.62,16.145c-19.369,18.407-37.13,22.278-51.013,22.278-18.734,0-34.556-10.008-34.556-33.9,0-5.495,1.3-11.951,2.905-19.057l15.179-61.347H152.065l6.783-29.708h26.48l7.742-30.674,39.719-14.206-11.3,44.879h42.94L257,1338.3Z" transform="translate(-152.065 -1213.666)" fill="url(#linear-gradient)"/>
      <path id="Path_203" data-name="Path 203" d="M212.692,1307.652H186.866l7.753-29.707h55.214l-9.049,41.331c16.475-30.027,33.263-43.91,50.054-43.91,11.943,0,23.571,9.361,23.571,23.244a22.324,22.324,0,0,1-22.278,22.282c-11.3,0-19.7-8.072-21.309-16.145-10.342,3.228-26.8,21.631-33.9,50.374l-16.148,64.252H184.6Z" transform="translate(-66.445 -1183.014)" fill="url(#linear-gradient)"/>
      <path id="Path_204" data-name="Path 204" d="M222.3,1456.911a68.094,68.094,0,0,1,1.928-15.5L261.7,1279.641h-26.48l7.753-29.708h61.344l-44.24,191.152c-1.285,5.814-2.251,10.335-2.251,13.89,0,7.1,2.251,10,7.422,10,5.817,0,11.947-3.548,19.057-23.244l14.2,5.487c-9.681,33.256-25.829,41.651-44.24,41.651C232.313,1488.874,222.3,1476.281,222.3,1456.911Z" transform="translate(32.758 -1249.934)" fill="url(#linear-gradient)"/>
      <path id="Path_205" data-name="Path 205" d="M235.819,1460.7a20.041,20.041,0,0,1,20.339-20.343,19.378,19.378,0,0,1,18.4,13.24c7.426-.969,19.053-11.947,45.206-42.944l-21.309-103.006h-23.9l7.753-29.707h46.176l16.787,105.587c19.7-25.833,35.518-47.464,40.689-65.545-7.753-3.228-13.882-10.335-13.882-20.666a21.844,21.844,0,0,1,22.278-21.955c16.145,0,25.51,11.62,25.51,29.381,0,15.5-7.753,41.978-60.712,106.234-54.571,66.191-73.3,72.971-95.9,72.971C246.15,1483.952,235.819,1472.655,235.819,1460.7Z" transform="translate(68.318 -1183.014)" fill="url(#linear-gradient)"/>
    </g>
    <circle id="Ellipse_447" data-name="Ellipse 447" cx="14.444" cy="14.444" r="14.444" transform="translate(673.321 1294.662)" fill="url(#linear-gradient)"/>
    <circle id="Ellipse_448" data-name="Ellipse 448" cx="14.444" cy="14.444" r="14.444" transform="translate(778.366 1294.662)" fill="url(#linear-gradient)"/>
    <circle id="Ellipse_449" data-name="Ellipse 449" cx="14.444" cy="14.444" r="14.444" transform="translate(725.843 1294.662)" fill="url(#linear-gradient)"/>
    <path id="Path_206" data-name="Path 206" d="M268.469,1468.726a19.375,19.375,0,0,0-18.4,13.24c-4.739-.621-11.213-5.349-22.057-16.722,43.347-20.5,71.573-68.45,71.573-114.543,0-55.541-34.875-95.253-92.667-95.253-68.138,0-117.535,63.929-117.535,124.961,0,50.366,28.393,87.595,76.519,93.957.679.091,18.777-.294,29.671-.621,32.507,34.283,47.966,38.568,65.8,38.568,17.107,0,27.438-11.293,27.438-23.244A20.043,20.043,0,0,0,268.469,1468.726Zm-141.316-88c0-44.886,32.62-92.025,76.533-92.025,37.453,0,58.119,26.8,58.119,61.67,0,44.883-32.609,92.029-76.523,92.029C147.819,1442.4,127.153,1415.6,127.153,1380.728Z" transform="translate(0 14.51)" fill="url(#linear-gradient)"/>
  </g>
</svg>
