<svg xmlns="http://www.w3.org/2000/svg" width="199.802" height="68.434" viewBox="0 0 199.802 68.434">
  <g id="Text" transform="translate(-199.596 -96.617)">
    <path id="Path_441183" data-name="Path 441183" d="M225.851,114.436a27.026,27.026,0,0,1,15.83,4.835c1.989,1.326,2.084,3.317.758,5.4l-1.233,1.9c-1.422,2.18-3.033,2.18-5.307,1.044a16.9,16.9,0,0,0-9.384-2.939c-8.91,0-14.692,6.73-14.692,14.975,0,8.152,5.782,15.166,15.071,15.166a18.9,18.9,0,0,0,10.805-3.7c2.37-1.328,4.17-1.044,5.4,1.231l.948,1.8c1.137,2.085.852,3.98-1.043,5.308a28.727,28.727,0,0,1-17.156,5.592c-16.018,0-26.255-11.28-26.255-25.307C199.6,126,209.833,114.436,225.851,114.436Z" fill="#2266a6"/>
    <path id="Path_441184" data-name="Path 441184" d="M274,114.436c13.744,0,21.421,9.763,21.421,23.033a4.19,4.19,0,0,1-4.171,4.076H261.775c.758,8.719,7.2,13.269,14.5,13.269a19.981,19.981,0,0,0,10.425-3.128c2.371-1.138,4.077-.853,5.308,1.327l1.138,1.9c1.137,2.18.759,4.076-1.326,5.308a30.561,30.561,0,0,1-16.4,4.834c-16.019,0-25.971-11.564-25.971-25.307C249.453,124.863,259.5,114.436,274,114.436Zm9.479,19.81c-.19-6.73-4.266-10.711-9.763-10.711-6.161,0-10.522,4.265-11.659,10.711Z" fill="#2266a6"/>
    <path id="Path_441185" data-name="Path 441185" d="M304.047,100.6c0-2.559,1.327-3.981,3.887-3.981h4.17c2.559,0,3.886,1.422,3.886,3.981v47.3c0,4.739,1.99,5.592,3.792,5.782a3.086,3.086,0,0,1,2.938,3.412v3.222c0,2.465-1.137,4.076-3.982,4.076-6.444,0-14.691-1.706-14.691-15.544Z" fill="#2266a6"/>
    <path id="Path_441186" data-name="Path 441186" d="M330.491,100.6c0-2.559,1.327-3.981,3.887-3.981h4.17c2.559,0,3.885,1.422,3.885,3.981v47.3c0,4.739,1.991,5.592,3.793,5.782a3.085,3.085,0,0,1,2.937,3.412v3.222c0,2.465-1.136,4.076-3.981,4.076-6.444,0-14.691-1.706-14.691-15.544Z" fill="#2266a6"/>
    <path id="Path_441187" data-name="Path 441187" d="M385.37,134.056h1.991v-1.137c0-6.351-4.076-8.53-9.005-8.53a21.825,21.825,0,0,0-10.047,2.749c-2.369,1.042-4.17.662-5.308-1.612l-.947-1.8c-1.138-2.18-.759-4.076,1.516-5.308a34.315,34.315,0,0,1,15.829-3.981c12.512,0,20,7.014,20,19.242v26.254q0,3.981-3.98,3.981H392.2c-2.559,0-3.887-1.327-3.887-3.981v-1.9a9.451,9.451,0,0,1,.19-2.085h-.19s-4.55,9.1-15.165,9.1c-8.815,0-16.018-5.688-16.018-14.5C357.125,136.426,374.565,134.056,385.37,134.056Zm-9,21.8c6.73,0,11.089-6.824,11.089-12.7v-1.8h-1.99c-6.066,0-16.4.948-16.4,8.151C369.067,152.729,371.532,155.856,376.366,155.856Z" fill="#2266a6"/>
  </g>
</svg>
